<?xml version="1.0" encoding="UTF-8"?>
<svg id="Camada_2" xmlns="http://www.w3.org/2000/svg" viewBox="0 0 288.16 56.12">
  <defs>
    <style>
      .cls-1 {
        fill: #fff;
      }
    </style>
  </defs>
  <g id="Layer_1">
    <path class="cls-1" d="M288.16,54.23c-4.94,0-9.66.02-14.38,0-1.7,0-3.77.45-5-.34-1.17-.75-1.5-2.84-2.16-4.36-2.79-6.39-5.56-12.78-8.45-19.44-.17,2.02-.18,3.79-.49,5.51-1.23,6.81-4.19,12.66-9.69,17.09-6.06,4.89-17.81,3.78-22.11-3.04v4.44h-18.45V10.58c-3.66,2.92-5.86,6.37-7.11,10.45-1.47,4.8-1.36,9.58-.06,14.43.71,2.67,1.19,5.46,1.3,8.21.19,4.74-2.4,8.2-6.88,9.76-4.36,1.52-8.83,1.31-13.59.78.82-.97,1.54-1.72,2.15-2.56,2.53-3.46,3.55-7.46,3.72-11.63.43-10.77-3.2-20.07-10.69-28.31v42.38h-18.4v-16.83c-5.01,11.82-14.22,17.77-26.59,18.74-12.3.96-22.27-3.66-29.55-14.25v12.39c-.73.04-1.31.09-1.88.09-14.71,0-29.43-.01-44.14.03-1.43,0-2.05-.32-1.9-1.85.13-1.38.03-2.78.03-4.63-.72.68-1.15,1.1-1.59,1.51-3.27,3.05-6.91,5.42-11.57,5.17-6.4-.35-10.2-4.27-12.48-9.87-1.74-4.26-1.69-8.69-.75-13.13.14-.68.31-1.35.59-2.52-1.86,1.75-3.39,3.19-4.92,4.63-.27.26-.5.59-.8.79-3.57,2.27-4.47,5.55-4.09,9.61.32,3.34.06,6.73.06,10.18H0V2.07h18.24v13.95c2.38-2.2,4.48-4.13,6.58-6.08,2.52-2.34,4.98-4.73,7.56-7,.61-.54,1.58-.94,2.39-.94,21.53-.05,43.06-.04,64.6-.04.53,0,1.05.04,1.71.07v13.54C108.03,4.22,118.16-.67,130.67.07c12.5.74,22,6.61,27.05,19.03V2.04c.67-.03,1.19-.07,1.71-.07,5.1,0,10.2-.05,15.3.04.92.02,2.01.42,2.73,1.01,5.37,4.36,9.82,9.58,13.83,15.2.39.55.78,1.1,1.3,1.85,2.63-7.47,7.85-12.57,13.66-17.17.59-.46,1.41-.88,2.13-.88,5.48-.07,10.95-.04,16.43-.03.26,0,.52.05.9.09v32.37c.21-.01.34,0,.36-.03,3.57-9.02,9.14-16.85,14.62-24.74,1.74-2.51,3.37-5.1,5.13-7.59.3-.43,1-.81,1.51-.82,5.58-.06,11.17-.06,16.75,0,.53,0,1.33.49,1.54.96,7.47,17.03,14.89,34.09,22.31,51.15.08.19.11.4.23.87ZM114.77,45.3c1.83-.37,3.72-.58,5.48-1.15,9.24-2.97,16.98-8.35,23.64-15.3,2.87-3,5.42-6.26,6.3-10.47.71-3.37-1.03-6.27-4.34-7.18-2.69-.74-5.34-.31-7.92.49-9.23,2.86-16.92,8.2-23.65,15-2.61,2.64-4.91,5.55-6.19,9.11-1.93,5.38.95,9.42,6.67,9.5ZM53.83,4.88c-.14-.05-.27-.1-.41-.15-7.97,7.6-15.94,15.2-23.87,22.76,4.54,8.83,12.94,12.11,22.58,9.02,1.25-.4,1.75-.95,1.74-2.35-.07-9.23-.04-18.47-.04-27.7v-1.57ZM247.89,6.32c-4.23,6.06-7.75,12.27-9.15,19.47-.61,3.15-.68,6.3.64,9.33,1.53,3.52,4.75,5.11,8.41,4.06,3.81-1.09,6.61-3.47,8.29-7.08,1.04-2.23,1.38-4.47.05-6.77-.59-1.01-.95-2.16-1.42-3.24-2.26-5.21-4.51-10.41-6.84-15.77ZM72.24,17.09v12.9c.48-1.17.77-1.96,1.12-2.73,2.82-6.14,9.28-9.67,15.31-8.33,2.39.53,4.27,1.79,4.99,4.28.63,2.2.09,4.28-1.06,6.17-2.76,4.54-7.03,6.92-12.01,8.25-.11.03-.25-.08-.25-.08.92-1.85,2.05-3.58,2.67-5.48,1.05-3.22-1.03-5.28-4.35-4.54-4.6,1.03-7.64,6.68-6.23,11.61h28.15c-2.83-7.38-2.79-14.71-.06-22.04h-28.27Z"/>
  </g>
</svg>